<?xml version="1.0" standalone="no"?><!DOCTYPE svg PUBLIC "-//W3C//DTD SVG 1.1//EN" "http://www.w3.org/Graphics/SVG/1.1/DTD/svg11.dtd"><svg t="1597245659445" class="icon" viewBox="0 0 1088 1024" version="1.1" xmlns="http://www.w3.org/2000/svg" p-id="27992" xmlns:xlink="http://www.w3.org/1999/xlink" width="212.5" height="200"><defs><style type="text/css"></style></defs><path d="M638.920876 45.089712A122.376599 122.376599 0 0 0 543.935224 0c-38.370103 0-72.605939 17.653209-95.088155 45.260549L4.37344 489.734179c-7.072673 6.799333-6.184318 16.582627 7.357402 16.377622l80.885864 0.125281c0.330286 0.011389 0.466956 0.068335 0.842798 0.068335a44.611367 44.611367 0 0 1 44.599978 44.611366V898.719164h0.159448c1.480592 68.335002 56.786386 123.652186 125.121388 125.132777v0.148059h558.06918v-0.148059c68.335002-1.480592 123.652186-56.797776 125.144167-125.132777h0.13667V552.215148a44.56581 44.56581 0 0 1 43.893849-44.531642l90.281927 0.148059s7.300456-0.444178 7.300456-8.621599c0-5.694583-9.168279-14.031454-9.16828-14.031454L638.920876 45.089712z m-92.092803 787.014214c-30.921588-45.055544-189.299344-138.822556-185.632033-234.218218a86.215994 86.215994 0 0 1 160.382249-43.962184c0.227783 0.261951 0.375843 0.535291 0.512513 0.80863 0.022778 0.079724 0.068335 0.159448 0.113892 0.239173 1.936158 3.382583 3.644533 6.901835 5.136514 10.557758 6.138761 11.628339 12.926704 21.138294 17.880992 21.138293 8.211589 0.318897 10.033856-12.02696 25.580069-35.796151 0.045557-0.079724 0.113892-0.148059 0.182227-0.227784a86.215994 86.215994 0 0 1 158.161361 41.912135c0.159448 1.685597 0.239173 3.439528 0.205005 5.307352 1.195863 86.853787-141.328173 186.247047-182.522789 234.240996z" fill="#E06065" p-id="27993"></path></svg>