<?xml version="1.0" standalone="no"?><!DOCTYPE svg PUBLIC "-//W3C//DTD SVG 1.1//EN" "http://www.w3.org/Graphics/SVG/1.1/DTD/svg11.dtd"><svg t="1597245720865" class="icon" viewBox="0 0 1024 1024" version="1.1" xmlns="http://www.w3.org/2000/svg" p-id="31270" xmlns:xlink="http://www.w3.org/1999/xlink" width="200" height="200"><defs><style type="text/css"></style></defs><path d="M996.814159 439.504425L550.513274 83.823009h-2.265486l-2.265487-2.265487s-2.265487 0-2.265487-2.265487c-20.389381-13.59292-47.575221-11.327434-67.964602 4.530974L27.185841 439.504425c-22.654867 18.123894-24.920354 54.371681-4.530974 77.026548 11.327434 11.327434 31.716814 9.061947 47.575221 9.061947h67.964602c31.716814 0 22.654867 36.247788 22.654868 67.964602v249.20354c0 74.761062 36.247788 113.274336 113.274336 113.274336h475.752212c77.026549 0 113.274336-38.513274 113.274336-113.274336v-249.20354c0-31.716814 13.59292-67.964602 45.309735-67.964602h45.309735c15.858407 0 38.513274 4.530973 49.840707-9.061947 18.123894-24.920354 15.858407-58.902655-6.79646-77.026548zM512 745.345133c-86.088496 0-158.584071-56.637168-169.911504-140.460177-2.265487-9.061947 6.79646-15.858407 18.123893-18.123894 33.982301-13.59292 90.619469-18.123894 154.053098-18.123894 61.168142 0 122.336283 4.530973 154.053097 18.123894 9.061947 4.530973 18.123894 9.061947 18.123894 18.123894-15.858407 83.823009-86.088496 140.460177-174.442478 140.460177z" fill="#62D3BC" p-id="31271"></path></svg>