<?xml version="1.0" standalone="no"?><!DOCTYPE svg PUBLIC "-//W3C//DTD SVG 1.1//EN" "http://www.w3.org/Graphics/SVG/1.1/DTD/svg11.dtd"><svg class="icon" width="200px" height="200.00px" viewBox="0 0 1024 1024" version="1.1" xmlns="http://www.w3.org/2000/svg"><path fill="#333333" d="M74.666667 373.333333m-32 0a32 32 0 1 0 64 0 32 32 0 1 0-64 0Z"  /><path fill="#333333" d="M138.666667 245.333333m-32 0a32 32 0 1 0 64 0 32 32 0 1 0-64 0Z"  /><path fill="#333333" d="M266.666667 181.333333m-32 0a32 32 0 1 0 64 0 32 32 0 1 0-64 0Z"  /><path fill="#333333" d="M394.666667 181.333333m-32 0a32 32 0 1 0 64 0 32 32 0 1 0-64 0Z"  /><path fill="#333333" d="M670.698667 256.618667c-71.210667-4.544-139.264 16.170667-194.901334 54.506666A191.082667 191.082667 0 0 0 341.333333 256a191.957333 191.957333 0 0 0-184.234666 245.845333c-49.557333 32.341333-84.8 85.845333-91.712 146.325334a203.541333 203.541333 0 0 0 50.005333 158.677333A202.88 202.88 0 0 0 266.666667 874.666667h384c85.013333 0 164.266667-33.770667 223.168-95.125334 58.858667-61.290667 89.365333-141.930667 85.909333-227.072-6.357333-156.053333-133.312-285.994667-289.045333-295.850666zM213.333333 448c0-70.570667 57.429333-128 128-128 31.765333 0 62.101333 11.818667 85.482667 32.768a306.581333 306.581333 0 0 0-75.541333 135.04 202.602667 202.602667 0 0 0-115.114667-16.256c-6.613333 0.981333-13.098667 2.389333-19.498667 4.032A125.909333 125.909333 0 0 1 213.333333 448z"  /></svg>