<?xml version="1.0" standalone="no"?>
<!DOCTYPE svg PUBLIC "-//W3C//DTD SVG 1.1//EN" "http://www.w3.org/Graphics/SVG/1.1/DTD/svg11.dtd">
<svg class="icon" width="200px" height="200.00px" viewBox="0 0 1024 1024" version="1.1"
  xmlns="http://www.w3.org/2000/svg">
  <path fill="#333333" d="M940.3 365.4c-25.7-50.8-56.2-74-93.1-85-32.7-9.8-71.4-8.9-71.4-8.9s1.6-30.4-7.7-58.1c-11.2-33.5-39.4-75.6-85.1-102.3-44.9-26.2-92.8-28.6-128.7-22.7-46.9 7.7-80.3 23.6-111.4 61.8-20.1 24.6-31.7 57.5-31.7 57.5s-27.5-15-54.6-15.4c-41.8-0.6-72.2 23-84.9 52.7-10.4 24.4-6.8 56.7-6.8 56.7s-22.9-5.7-46-5.5c-23.9 0.2-61.9 4.2-101.4 38-29.2 25-57.4 67-53.1 126 4.8 65.7 51.6 181 433.8 179.9 390.6-1 436.9-105.7 450.8-142.5 18.1-47.7 13-89.5-8.7-132.2zM800.5 799.9l-47.4 12.7-12.7-47.4c-3.5-13.1-17-20.8-30.1-17.3-13.1 3.5-20.9 16.9-17.4 30.1l12.7 47.4-47.4 12.6c-13.1 3.5-20.9 17-17.4 30.1 3.5 13.1 17 20.9 30.1 17.4l47.4-12.7 12.7 47.4c3.5 13.1 17 20.9 30.1 17.4 13.1-3.5 20.9-17 17.4-30.1L765.8 860l47.4-12.7c13.1-3.5 20.9-17 17.4-30.1-3.5-13-17-20.8-30.1-17.3z m-234.6-46.2l-39.5 10.6-10.6-39.5c-2.9-10.9-14.1-17.4-25.1-14.5-10.9 2.9-17.4 14.1-14.5 25l10.6 39.5-39.5 10.6c-10.9 2.9-17.4 14.2-14.5 25.1 2.9 10.9 14.1 17.4 25.1 14.5l39.5-10.6 10.6 39.5c2.9 10.9 14.1 17.4 25.1 14.5 10.9-2.9 17.4-14.1 14.5-25L537 803.9l39.5-10.6c10.9-2.9 17.4-14.2 14.5-25.1-2.9-10.9-14.1-17.4-25.1-14.5z m-255.6 46.2l-47.4 12.7-12.7-47.4c-3.5-13.1-17-20.8-30.1-17.3-13.1 3.5-20.9 16.9-17.4 30.1l12.7 47.4L168 838c-13.1 3.5-20.9 17-17.4 30.1 3.5 13.1 17 20.9 30.1 17.4l47.4-12.7 12.7 47.4c3.5 13.1 17 20.9 30.1 17.4 13.1-3.5 20.9-17 17.4-30.1L275.6 860l47.4-12.7c13.1-3.5 20.9-17 17.4-30.1-3.5-13-17-20.8-30.1-17.3z"  />
</svg>