<?xml version="1.0" standalone="no"?><!DOCTYPE svg PUBLIC "-//W3C//DTD SVG 1.1//EN" "http://www.w3.org/Graphics/SVG/1.1/DTD/svg11.dtd"><svg class="icon" width="200px" height="200.00px" viewBox="0 0 1024 1024" version="1.1" xmlns="http://www.w3.org/2000/svg"><path fill="#333333" d="M940.3 370.7c-25.7-50.8-56.2-74-93.1-85.1-32.7-9.8-71.4-8.9-71.4-8.9s1.6-30.3-7.7-58.1c-11.2-33.5-39.4-75.6-85.1-102.3-44.9-26.2-92.8-28.6-128.7-22.7-46.9 7.7-80.3 23.7-111.4 61.9-20.1 24.5-31.7 57.5-31.7 57.5s-27.5-15-54.6-15.4c-41.8-0.6-72.2 23-84.9 52.8-10.4 24.3-6.8 56.7-6.8 56.7s-22.9-5.8-46-5.6c-23.9 0.2-61.9 4.3-101.4 38-29.2 25-57.4 67-53.1 126.1 4.8 65.7 51.6 181 433.8 179.9 390.6-1.1 436.9-105.7 450.8-142.6 18.1-47.8 13-89.5-8.7-132.2zM640.1 681.9c-28-12.2-116.8 119.4-116.8 119.4s8.6-64.7-20.3-65.8c-29-1-143.4 189-136 197.2 7.4 8.2 118.7-99 118.7-99s4.1 43.3 18.3 59.1c2.9 3.3 6.3 5.3 10.1 5.7 22.4 1.9 113.1-114.8 113.1-114.8s83.2-71.1 12.9-101.8z"  /></svg>