<?xml version="1.0" standalone="no"?><!DOCTYPE svg PUBLIC "-//W3C//DTD SVG 1.1//EN" "http://www.w3.org/Graphics/SVG/1.1/DTD/svg11.dtd"><svg t="1598799100408" class="icon" viewBox="0 0 1024 1024" version="1.1" xmlns="http://www.w3.org/2000/svg" p-id="4882" xmlns:xlink="http://www.w3.org/1999/xlink" width="200" height="200"><defs><style type="text/css"></style></defs><path d="M511.99904 0C282.23904 0 95.99904 189.888 95.99904 424.192c0 117.12 46.592 223.104 121.856 299.904L511.99904 1024l294.144-299.904A427.072 427.072 0 0 0 927.99904 424.192C927.99904 189.888 741.75904 0 511.99904 0z m0 612.608C409.59904 612.352 326.78304 528 327.03904 424.192v-0.128C326.78304 320.32 409.59904 235.904 511.87104 235.648H511.99904c102.4 0.256 185.216 84.608 184.96 188.416v0.128c0.32 103.744-82.432 188.16-184.768 188.48H511.99904v-0.064z" p-id="4883"></path></svg>