<?xml version="1.0" standalone="no"?><!DOCTYPE svg PUBLIC "-//W3C//DTD SVG 1.1//EN" "http://www.w3.org/Graphics/SVG/1.1/DTD/svg11.dtd"><svg t="1598799109626" class="icon" viewBox="0 0 1024 1024" version="1.1" xmlns="http://www.w3.org/2000/svg" p-id="5605" xmlns:xlink="http://www.w3.org/1999/xlink" width="200" height="200"><defs><style type="text/css"></style></defs><path d="M622.01828 713.087987c1.854241-1.147863 22.427482-14.039251 28.431691-17.659435a274.957404 274.957404 0 0 1 29.491256-15.893492c64.545235-29.314662 121.408616-8.829718 196.637809 79.467458a139.42124 139.42124 0 0 1 42.382644 145.690339 181.009209 181.009209 0 0 1-85.118476 81.674887c-3.002104 1.765944-29.402959 17.129652-36.201842 21.367916-106.839582 65.95799-351.864243-85.03018-528.017108-342.946228S47.291967 130.414928 155.544304 63.573966L169.848446 54.744249 185.388749 44.678371A178.536888 178.536888 0 0 1 316.774946 2.119132a157.787052 157.787052 0 0 1 106.662987 93.7716c62.955886 118.318215 49.093229 174.386921-31.963577 225.422688-5.827614 3.708481-26.489153 16.24668-28.431691 17.659436-19.866864 12.273307 13.774359 94.566275 91.91736 208.999413S600.208878 726.950643 621.929983 713.706067z" p-id="5606"></path></svg>