<?xml version="1.0" standalone="no"?><!DOCTYPE svg PUBLIC "-//W3C//DTD SVG 1.1//EN" "http://www.w3.org/Graphics/SVG/1.1/DTD/svg11.dtd"><svg t="1598784940623" class="icon" viewBox="0 0 1024 1024" version="1.1" xmlns="http://www.w3.org/2000/svg" p-id="9539" xmlns:xlink="http://www.w3.org/1999/xlink" width="200" height="200"><defs><style type="text/css"></style></defs><path d="M512 161.559583c-202.586998 0-366.813317 164.225295-366.813317 366.813317s164.225295 366.813317 366.813317 366.813317c202.582905 0 366.812293-164.226319 366.812293-366.813317S714.582905 161.559583 512 161.559583L512 161.559583zM636.774795 667.692968l-12.967336 12.970406c-7.164167 7.160073-18.776645 7.160073-25.937742 0L478.923674 561.716308c-4.110621-4.110621-3.605108-12.373819-3.605108-20.50501L475.318566 308.285319c0-10.131755 8.213056-18.340717 18.339694-18.340717l18.340717 0c10.127661 0 18.340717 8.208962 18.340717 18.340717l0 227.031736 106.434078 106.438171C643.938961 648.918369 643.938961 660.527778 636.774795 667.692968L636.774795 667.692968z" p-id="9540"></path></svg>